<?xml version="1.0" encoding="utf-8"?>
<!-- Generator: Adobe Illustrator 23.0.2, SVG Export Plug-In . SVG Version: 6.00 Build 0)  -->
<svg version="1.1" id="Layer_1" xmlns="http://www.w3.org/2000/svg" xmlns:xlink="http://www.w3.org/1999/xlink" x="0px" y="0px"
	 viewBox="0 0 64 51" style="enable-background:new 0 0 64 51;" xml:space="preserve">
<style type="text/css">
	.st0{fill-rule:evenodd;clip-rule:evenodd;fill:#41A6DA;}
</style>
<title>Group 10 Copy</title>
<desc>Created with Sketch.</desc>
<g id="Page-1">
	<g id="Group-10-Copy" transform="translate(0.000000, -1.000000)">
		<path id="Fill-1" class="st0" d="M22.6,14.3c-0.4-0.2-1.1-0.3-1.9-0.3c-3.3,0-4.8,1.8-4.8,5.1V20c0,3.3,1.5,5.1,4.8,5.1
			c0.8,0,1.5-0.1,1.9-0.3c0.3-0.1,0.3-0.1,0.3-0.3v-2.7c-1,0.1-1.4,0.2-1.9,0.2c-0.9,0-1.6-0.2-1.6-2v-0.9c0-1.7,0.7-2,1.6-2
			c0.6,0,1.3,0.1,1.9,0.2v-2.7C22.9,14.5,22.8,14.4,22.6,14.3"/>
		<path id="Fill-3" class="st0" d="M33.6,14.2h-2.9c-0.2,0-0.3,0-0.3,0.3v3.7h-2.6v-3.7c0-0.3-0.1-0.3-0.3-0.3h-2.9
			c-0.2,0-0.3,0-0.3,0.3v10.2c0,0.3,0.1,0.3,0.3,0.3h2.9c0.2,0,0.3,0,0.3-0.3v-3.5h2.6v3.5c0,0.3,0.1,0.3,0.3,0.3h2.9
			c0.2,0,0.3,0,0.3-0.3v-0.4v-9.9C33.9,14.2,33.7,14.2,33.6,14.2"/>
		<g id="Group-7" transform="translate(0.000000, 0.309600)">
			<g id="Clip-6">
			</g>
			<path id="Fill-5" class="st0" d="M3,27.8V12.2c0-4.7,3.8-8.5,8.5-8.5H40c4.7,0,8.5,3.8,8.5,8.5v12.6c-6.1,0.7-10.9,5.5-11.6,11.6
				H11.5C6.8,36.3,3,32.5,3,27.8 M50,48c-5.1,0-9.3-3.8-10.1-8.7c-0.1-0.5-0.1-1-0.1-1.5s0-1,0.1-1.5c0.7-4.4,4.1-7.9,8.6-8.6
				c0.5-0.1,1-0.1,1.5-0.1s1,0.1,1.5,0.1c4.9,0.7,8.7,5,8.7,10.1C60.1,43.4,55.6,48,50,48 M51.5,24.7V12.2c0-6.3-5.2-11.5-11.5-11.5
				H11.5C5.2,0.7,0,5.8,0,12.2v15.6c0,6.3,5.2,11.5,11.5,11.5h25.4c0.2,2.1,1,4.1,2.1,5.8H11.2c-0.8,0-1.5,0.7-1.5,1.5
				s0.7,1.5,1.5,1.5h29.7c0.2,0,0.4-0.1,0.6-0.1c2.3,1.9,5.2,3.1,8.4,3.1c7.3,0,13.2-5.9,13.2-13.2C63.1,31.1,58,25.5,51.5,24.7"/>
		</g>
		<path id="Fill-8" class="st0" d="M56,35.7l-3.6-0.5c-0.2,0-0.3-0.1-0.4-0.3l-1.3-2.7l-0.3-0.6c-0.2-0.4-0.7-0.4-0.8,0L48,34.9
			c-0.1,0.1-0.2,0.2-0.4,0.3L44,35.7c-0.4,0.1-0.5,0.5-0.3,0.8l1.8,1.8l0.8,0.8c0.1,0.1,0.2,0.3,0.1,0.4l-0.6,3.6
			c-0.1,0.4,0.3,0.7,0.7,0.5l3.2-1.7c0.1-0.1,0.3-0.1,0.4,0l3.2,1.7c0.3,0.2,0.7-0.1,0.7-0.5l-0.6-3.6c0-0.2,0-0.3,0.1-0.4l2.6-2.6
			C56.6,36.2,56.4,35.7,56,35.7"/>
	</g>
</g>
</svg>
