<?xml version="1.0" encoding="utf-8"?>
<!-- Generator: Adobe Illustrator 23.0.2, SVG Export Plug-In . SVG Version: 6.00 Build 0)  -->
<svg version="1.1" id="Layer_1" xmlns="http://www.w3.org/2000/svg" xmlns:xlink="http://www.w3.org/1999/xlink" x="0px" y="0px"
	 viewBox="0 0 78 50" style="enable-background:new 0 0 78 50;" xml:space="preserve">
<style type="text/css">
	.st0{fill-rule:evenodd;clip-rule:evenodd;fill:#41A6DA;}
</style>
<title>Group 8 Copy</title>
<desc>Created with Sketch.</desc>
<g id="Page-1">
	<g id="Group-8-Copy" transform="translate(0.000000, -1.000000)">
		<path id="Fill-1" class="st0" d="M25.9,22.4h-2c-0.8,0-1.5,0.7-1.5,1.5s0.7,1.5,1.5,1.5h2c0.8,0,1.5-0.7,1.5-1.5
			S26.7,22.4,25.9,22.4"/>
		<g id="Group-5" transform="translate(0.000000, 0.452100)">
			<g id="Clip-4">
			</g>
			<path id="Fill-3" class="st0" d="M57.7,36.2H46.2V23.1c0-2.6-2.1-4.7-4.7-4.7H14V12c0-4.7,3.8-8.5,8.5-8.5h35.1
				c4.7,0,8.5,3.8,8.5,8.5v4.9h-3.5c-2.5,0-4.6,2-4.6,4.6v14.7C57.9,36.2,57.8,36.2,57.7,36.2L57.7,36.2z M44,47H29.1
				c0.6-0.1,1.2-0.6,1.4-1.2h14.2h1.5C45.8,46.5,45,47,44,47L44,47z M3.5,45.8H5h14.2c0.3,0.6,0.8,1,1.4,1.2H5.7
				C4.8,47,3.9,46.5,3.5,45.8L3.5,45.8z M43.2,39.2v3.6H6.5V23.1c0-0.9,0.8-1.7,1.7-1.7H11h3h27.5c0.9,0,1.7,0.8,1.7,1.7v13.1V39.2z
				 M61.1,35.5v-9.7h5.1h3h5.4l0,0v14.7l0,0H61.1v-1.8V35.5z M74.6,21.5v1.3l0,0h-5.4h-3h-5.1v-1.3c0-0.9,0.7-1.6,1.6-1.6h3.5h3H73
				C73.9,19.9,74.6,20.6,74.6,21.5L74.6,21.5z M74.6,45c0,0.9-0.7,1.6-1.6,1.6H62.6c-0.9,0-1.6-0.7-1.6-1.6v-1.6h13.5l0,0L74.6,45
				L74.6,45z M73,16.9h-3.9V12c0-6.3-5.2-11.5-11.5-11.5H22.5C16.2,0.5,11,5.7,11,12v6.4H8.2c-2.6,0-4.7,2.1-4.7,4.7v19.7h-2
				c-0.8,0-1.5,0.7-1.5,1.5C0,47.5,2.5,50,5.7,50h17.4H44c1.8,0,3.4-0.8,4.4-2.1h3.7c1.4,0,2.7,0.5,3.7,1.5c0.6,0.6,1.5,0.6,2.1,0
				s0.6-1.5,0-2.1c-1.6-1.5-3.6-2.4-5.8-2.4h-2.5c0-0.2,0-0.4,0-0.6c0-0.8-0.7-1.5-1.5-1.5h-2v-3.6h11.4c0.1,0,0.3,0,0.4,0V45
				c0,2.5,2,4.6,4.6,4.6H73c2.5,0,4.6-2,4.6-4.6V21.5C77.6,19,75.5,16.9,73,16.9L73,16.9z"/>
		</g>
		<path id="Fill-6" class="st0" d="M67.8,44.6c-0.5,0-0.9,0.4-0.9,0.9s0.4,0.9,0.9,0.9s0.9-0.4,0.9-0.9C68.7,45,68.3,44.6,67.8,44.6
			"/>
	</g>
</g>
</svg>
