<svg xmlns="http://www.w3.org/2000/svg" width="31" height="28" viewBox="0 0 31 28">
    <path fill="#39A4DC" fill-rule="evenodd" d="M28.66 16.053a5.033 5.033 0 0 1-5.025 5.028H6.8a5.033 5.033 0 0 1-5.026-5.028v-9.25A5.033 5.033 0 0 1 6.8 1.775h16.835a5.033 5.033 0 0 1 5.026 5.028v9.25zM23.636 0c3.75 0 6.8 3.052 6.8 6.803v9.25c0 3.75-3.05 6.803-6.8 6.803H6.8c-3.75 0-6.8-3.052-6.8-6.803v-9.25C0 3.052 3.05 0 6.8 0h16.835zm.37 26.225a.887.887 0 0 1 0 1.775H6.428a.887.887 0 0 1 0-1.775h17.575z"/>
</svg>
